<?xml version="1.0" standalone="no"?>
<!DOCTYPE svg PUBLIC "-//W3C//DTD SVG 20010904//EN"
 "http://www.w3.org/TR/2001/REC-SVG-20010904/DTD/svg10.dtd">
<svg version="1.0" xmlns="http://www.w3.org/2000/svg"
 width="512.000000pt" height="512.000000pt" viewBox="0 0 512.000000 512.000000"
 preserveAspectRatio="xMidYMid meet">
<metadata>
Created by potrace 1.14, written by Peter Selinger 2001-2017
</metadata>
<g transform="translate(0.000000,512.000000) scale(0.100000,-0.100000)"
fill="#000000" stroke="none">
<path d="M2493 5105 c-27 -11 -306 -170 -521 -296 -45 -27 -84 -49 -87 -49 -2
0 -24 -13 -48 -30 -25 -16 -48 -30 -51 -30 -4 0 -23 -11 -44 -23 -20 -13 -59
-36 -87 -52 -27 -15 -124 -70 -215 -123 -259 -149 -416 -240 -452 -260 -18
-11 -87 -51 -153 -89 -66 -39 -140 -81 -165 -95 -242 -135 -293 -170 -323
-227 l-27 -48 0 -1207 c0 -855 3 -1219 11 -1251 19 -76 48 -97 399 -297 19
-11 64 -37 100 -58 36 -21 81 -47 100 -58 19 -11 76 -43 125 -72 50 -29 115
-66 145 -83 30 -17 83 -48 118 -69 34 -21 64 -38 66 -38 2 0 66 -37 142 -81
77 -45 159 -93 184 -107 25 -14 140 -80 255 -147 523 -302 527 -304 581 -310
66 -8 78 -3 311 133 103 60 208 120 233 134 178 100 1602 925 1631 944 20 14
48 47 63 73 l26 48 -1 1224 c-1 1011 -3 1229 -14 1255 -19 42 -68 90 -124 120
-25 13 -59 33 -76 43 -34 20 -987 571 -1051 607 -22 12 -150 86 -283 163 -134
78 -247 141 -252 141 -5 0 -9 5 -9 10 0 6 -5 10 -10 10 -6 0 -80 40 -164 90
-84 49 -166 95 -182 101 -40 17 -115 19 -151 4z m277 -535 c691 -398 815 -469
903 -522 55 -32 101 -58 103 -58 2 0 44 -25 95 -55 50 -30 93 -55 94 -55 2 0
90 -51 197 -112 106 -62 206 -119 221 -127 l27 -14 0 -1066 0 -1066 -63 -36
c-88 -50 -514 -296 -622 -359 -49 -29 -108 -62 -130 -75 -22 -12 -85 -48 -140
-80 -55 -32 -113 -66 -130 -75 -16 -10 -129 -75 -250 -145 -121 -70 -238 -138
-260 -150 -22 -13 -87 -50 -145 -84 l-105 -60 -35 21 c-19 11 -60 34 -90 51
-30 17 -72 41 -92 54 -21 13 -40 23 -43 23 -3 0 -18 8 -33 19 -21 14 -344 202
-537 311 -16 9 -102 59 -190 110 -88 51 -176 102 -195 112 -19 11 -64 37 -100
58 -36 21 -82 47 -103 59 -66 38 -101 58 -157 91 -30 18 -80 47 -110 64 -31
17 -79 45 -108 61 l-52 30 0 1066 0 1067 38 19 c20 11 96 54 169 96 72 42 147
85 165 95 18 11 105 61 193 112 88 51 248 144 356 206 274 157 352 203 369
214 8 6 22 13 30 17 8 4 64 35 123 70 60 35 110 63 112 63 2 0 24 14 48 30 25
17 47 30 50 30 3 0 47 24 98 54 51 30 95 53 98 52 3 -2 94 -54 201 -116z"/>
<path d="M2845 3445 c-20 -8 -51 -26 -67 -42 -19 -18 -156 -281 -395 -758
-343 -687 -365 -734 -365 -783 1 -133 125 -226 255 -191 83 22 84 23 473 803
334 669 365 736 366 782 1 140 -133 234 -267 189z"/>
<path d="M1554 3252 c-45 -12 -74 -39 -330 -295 -197 -197 -287 -294 -299
-322 -21 -49 -14 -134 15 -179 10 -17 140 -151 287 -298 184 -183 280 -272
307 -283 102 -43 221 4 262 102 20 46 17 120 -6 167 -12 25 -95 116 -208 228
l-188 187 193 194 c119 119 198 207 208 230 18 43 19 121 2 158 -16 35 -58 84
-85 98 -43 23 -106 28 -158 13z"/>
<path d="M3485 3259 c-104 -23 -165 -94 -167 -192 -1 -77 23 -110 220 -308
103 -104 187 -193 187 -199 0 -5 -84 -94 -187 -198 -196 -197 -220 -230 -220
-306 0 -56 17 -94 59 -138 61 -63 147 -77 226 -39 59 29 579 552 601 605 19
46 20 84 4 140 -10 34 -58 87 -277 308 -146 148 -281 279 -300 292 -43 30
-105 45 -146 35z"/>
</g>
</svg>
